<svg xmlns="http://www.w3.org/2000/svg" viewBox="0 0 1440 320" preserveAspectRatio="none"><path fill="#fff" fill-opacity="1" d="M0,224L17.1,208C34.3,192,69,160,103,149.3C137.1,139,171,149,206,160C240,171,274,181,309,197.3C342.9,213,377,235,411,234.7C445.7,235,480,213,514,218.7C548.6,224,583,256,617,261.3C651.4,267,686,245,720,234.7C754.3,224,789,224,823,192C857.1,160,891,96,926,69.3C960,43,994,53,1029,90.7C1062.9,128,1097,192,1131,181.3C1165.7,171,1200,85,1234,69.3C1268.6,53,1303,107,1337,133.3C1371.4,160,1406,160,1423,160L1440,160L1440,320L1422.9,320C1405.7,320,1371,320,1337,320C1302.9,320,1269,320,1234,320C1200,320,1166,320,1131,320C1097.1,320,1063,320,1029,320C994.3,320,960,320,926,320C891.4,320,857,320,823,320C788.6,320,754,320,720,320C685.7,320,651,320,617,320C582.9,320,549,320,514,320C480,320,446,320,411,320C377.1,320,343,320,309,320C274.3,320,240,320,206,320C171.4,320,137,320,103,320C68.6,320,34,320,17,320L0,320Z"></path></svg>